<?xml version="1.0" encoding="UTF-8" standalone="no"?>
<!DOCTYPE svg PUBLIC "-//W3C//DTD SVG 1.1//EN"
 "http://www.w3.org/Graphics/SVG/1.1/DTD/svg11.dtd">
<!-- Generated by graphviz version 2.43.0 (0)
 -->
<!-- Title: %3 Pages: 1 -->
<svg width="224pt" height="548pt"
 viewBox="0.00 0.00 224.49 548.00" xmlns="http://www.w3.org/2000/svg" xmlns:xlink="http://www.w3.org/1999/xlink">
<g id="graph0" class="graph" transform="scale(1 1) rotate(0) translate(4 544)">
<title>%3</title>
<polygon fill="white" stroke="transparent" points="-4,4 -4,-544 220.49,-544 220.49,4 -4,4"/>
<!-- AA -->
<g id="node1" class="node">
<title>AA</title>
<ellipse fill="none" stroke="black" cx="115" cy="-522" rx="27" ry="18"/>
<text text-anchor="middle" x="115" y="-518.3" font-family="Times,serif" font-size="14.00">AA</text>
</g>
<!-- BB -->
<g id="node2" class="node">
<title>BB</title>
<ellipse fill="none" stroke="black" cx="39" cy="-450" rx="38.99" ry="18"/>
<text text-anchor="middle" x="39" y="-446.3" font-family="Times,serif" font-size="14.00">BB 13</text>
</g>
<!-- AA&#45;&gt;BB -->
<g id="edge3" class="edge">
<title>AA&#45;&gt;BB</title>
<path fill="none" stroke="black" d="M96.49,-508.81C84.78,-499.36 69.87,-485.99 58.08,-474.48"/>
<polygon fill="black" stroke="black" points="60.39,-471.84 50.84,-467.25 55.44,-476.8 60.39,-471.84"/>
</g>
<!-- DD -->
<g id="node4" class="node">
<title>DD</title>
<ellipse fill="none" stroke="black" cx="77" cy="-306" rx="40.09" ry="18"/>
<text text-anchor="middle" x="77" y="-302.3" font-family="Times,serif" font-size="14.00">DD 20</text>
</g>
<!-- AA&#45;&gt;DD -->
<g id="edge1" class="edge">
<title>AA&#45;&gt;DD</title>
<path fill="none" stroke="black" d="M108.27,-504.56C98.16,-467.94 82.14,-379.34 77.16,-334.29"/>
<polygon fill="black" stroke="black" points="80.62,-333.7 76.16,-324.09 73.65,-334.38 80.62,-333.7"/>
</g>
<!-- II -->
<g id="node9" class="node">
<title>II</title>
<ellipse fill="none" stroke="black" cx="182" cy="-450" rx="27" ry="18"/>
<text text-anchor="middle" x="182" y="-446.3" font-family="Times,serif" font-size="14.00">II</text>
</g>
<!-- AA&#45;&gt;II -->
<g id="edge2" class="edge">
<title>AA&#45;&gt;II</title>
<path fill="none" stroke="black" d="M124.44,-505.12C132.94,-495.02 145.39,-481.87 156.63,-471.05"/>
<polygon fill="black" stroke="black" points="159.25,-473.4 164.16,-464.01 154.46,-468.29 159.25,-473.4"/>
</g>
<!-- BB&#45;&gt;AA -->
<g id="edge5" class="edge">
<title>BB&#45;&gt;AA</title>
<path fill="none" stroke="black" d="M60.09,-465.3C71.63,-474.79 85.64,-487.45 96.72,-498.3"/>
<polygon fill="black" stroke="black" points="94.31,-500.85 103.85,-505.46 99.27,-495.91 94.31,-500.85"/>
</g>
<!-- CC -->
<g id="node3" class="node">
<title>CC</title>
<ellipse fill="none" stroke="black" cx="42" cy="-378" rx="33.29" ry="18"/>
<text text-anchor="middle" x="42" y="-374.3" font-family="Times,serif" font-size="14.00">CC 2</text>
</g>
<!-- BB&#45;&gt;CC -->
<g id="edge4" class="edge">
<title>BB&#45;&gt;CC</title>
<path fill="none" stroke="black" d="M33.84,-432.05C33.35,-424.23 33.52,-414.75 34.25,-405.98"/>
<polygon fill="black" stroke="black" points="37.76,-406.12 35.42,-395.79 30.8,-405.33 37.76,-406.12"/>
</g>
<!-- CC&#45;&gt;BB -->
<g id="edge7" class="edge">
<title>CC&#45;&gt;BB</title>
<path fill="none" stroke="black" d="M47.14,-395.79C47.64,-403.59 47.48,-413.07 46.76,-421.85"/>
<polygon fill="black" stroke="black" points="43.25,-421.72 45.6,-432.05 50.2,-422.51 43.25,-421.72"/>
</g>
<!-- CC&#45;&gt;DD -->
<g id="edge6" class="edge">
<title>CC&#45;&gt;DD</title>
<path fill="none" stroke="black" d="M44.59,-360.05C47.89,-351.68 52.82,-341.4 57.92,-332.13"/>
<polygon fill="black" stroke="black" points="61.05,-333.71 63.03,-323.31 54.99,-330.21 61.05,-333.71"/>
</g>
<!-- DD&#45;&gt;AA -->
<g id="edge9" class="edge">
<title>DD&#45;&gt;AA</title>
<path fill="none" stroke="black" d="M83.86,-323.94C93.97,-360.85 109.87,-448.83 114.83,-493.69"/>
<polygon fill="black" stroke="black" points="111.37,-494.24 115.83,-503.85 118.34,-493.56 111.37,-494.24"/>
</g>
<!-- DD&#45;&gt;CC -->
<g id="edge8" class="edge">
<title>DD&#45;&gt;CC</title>
<path fill="none" stroke="black" d="M74.2,-324.46C70.81,-332.98 65.79,-343.37 60.63,-352.66"/>
<polygon fill="black" stroke="black" points="57.51,-351.07 55.48,-361.46 63.55,-354.6 57.51,-351.07"/>
</g>
<!-- EE -->
<g id="node5" class="node">
<title>EE</title>
<ellipse fill="none" stroke="black" cx="77" cy="-234" rx="33.29" ry="18"/>
<text text-anchor="middle" x="77" y="-230.3" font-family="Times,serif" font-size="14.00">EE 3</text>
</g>
<!-- DD&#45;&gt;EE -->
<g id="edge10" class="edge">
<title>DD&#45;&gt;EE</title>
<path fill="none" stroke="black" d="M71.12,-288.05C70.29,-280.23 70.05,-270.75 70.41,-261.98"/>
<polygon fill="black" stroke="black" points="73.91,-262.01 71.13,-251.79 66.93,-261.51 73.91,-262.01"/>
</g>
<!-- EE&#45;&gt;DD -->
<g id="edge12" class="edge">
<title>EE&#45;&gt;DD</title>
<path fill="none" stroke="black" d="M82.86,-251.79C83.7,-259.59 83.94,-269.07 83.59,-277.85"/>
<polygon fill="black" stroke="black" points="80.09,-277.83 82.87,-288.05 87.07,-278.33 80.09,-277.83"/>
</g>
<!-- FF -->
<g id="node6" class="node">
<title>FF</title>
<ellipse fill="none" stroke="black" cx="77" cy="-162" rx="27" ry="18"/>
<text text-anchor="middle" x="77" y="-158.3" font-family="Times,serif" font-size="14.00">FF</text>
</g>
<!-- EE&#45;&gt;FF -->
<g id="edge11" class="edge">
<title>EE&#45;&gt;FF</title>
<path fill="none" stroke="black" d="M71.12,-216.05C70.29,-208.23 70.05,-198.75 70.41,-189.98"/>
<polygon fill="black" stroke="black" points="73.91,-190.01 71.13,-179.79 66.93,-189.51 73.91,-190.01"/>
</g>
<!-- FF&#45;&gt;EE -->
<g id="edge13" class="edge">
<title>FF&#45;&gt;EE</title>
<path fill="none" stroke="black" d="M82.86,-179.79C83.7,-187.59 83.94,-197.07 83.59,-205.85"/>
<polygon fill="black" stroke="black" points="80.09,-205.83 82.87,-216.05 87.07,-206.33 80.09,-205.83"/>
</g>
<!-- GG -->
<g id="node7" class="node">
<title>GG</title>
<ellipse fill="none" stroke="black" cx="77" cy="-90" rx="27" ry="18"/>
<text text-anchor="middle" x="77" y="-86.3" font-family="Times,serif" font-size="14.00">GG</text>
</g>
<!-- FF&#45;&gt;GG -->
<g id="edge14" class="edge">
<title>FF&#45;&gt;GG</title>
<path fill="none" stroke="black" d="M71.16,-144.41C70.29,-136.51 70.04,-126.85 70.41,-117.94"/>
<polygon fill="black" stroke="black" points="73.9,-118.18 71.12,-107.96 66.92,-117.68 73.9,-118.18"/>
</g>
<!-- GG&#45;&gt;FF -->
<g id="edge15" class="edge">
<title>GG&#45;&gt;FF</title>
<path fill="none" stroke="black" d="M82.88,-107.96C83.71,-115.83 83.95,-125.37 83.58,-134.19"/>
<polygon fill="black" stroke="black" points="80.07,-134.18 82.84,-144.41 87.05,-134.69 80.07,-134.18"/>
</g>
<!-- HH -->
<g id="node8" class="node">
<title>HH</title>
<ellipse fill="none" stroke="black" cx="77" cy="-18" rx="40.89" ry="18"/>
<text text-anchor="middle" x="77" y="-14.3" font-family="Times,serif" font-size="14.00">HH 22</text>
</g>
<!-- GG&#45;&gt;HH -->
<g id="edge16" class="edge">
<title>GG&#45;&gt;HH</title>
<path fill="none" stroke="black" d="M71.16,-72.41C70.29,-64.51 70.04,-54.85 70.41,-45.94"/>
<polygon fill="black" stroke="black" points="73.9,-46.18 71.12,-35.96 66.92,-45.68 73.9,-46.18"/>
</g>
<!-- HH&#45;&gt;GG -->
<g id="edge17" class="edge">
<title>HH&#45;&gt;GG</title>
<path fill="none" stroke="black" d="M82.88,-35.96C83.71,-43.83 83.95,-53.37 83.58,-62.19"/>
<polygon fill="black" stroke="black" points="80.07,-62.18 82.84,-72.41 87.05,-62.69 80.07,-62.18"/>
</g>
<!-- II&#45;&gt;AA -->
<g id="edge18" class="edge">
<title>II&#45;&gt;AA</title>
<path fill="none" stroke="black" d="M172.5,-466.95C163.95,-477.09 151.44,-490.3 140.18,-501.12"/>
<polygon fill="black" stroke="black" points="137.56,-498.77 132.65,-508.16 142.34,-503.89 137.56,-498.77"/>
</g>
<!-- JJ -->
<g id="node10" class="node">
<title>JJ</title>
<ellipse fill="none" stroke="black" cx="184" cy="-378" rx="32.49" ry="18"/>
<text text-anchor="middle" x="184" y="-374.3" font-family="Times,serif" font-size="14.00">JJ 21</text>
</g>
<!-- II&#45;&gt;JJ -->
<g id="edge19" class="edge">
<title>II&#45;&gt;JJ</title>
<path fill="none" stroke="black" d="M176.6,-432.05C176,-424.23 176.03,-414.75 176.64,-405.98"/>
<polygon fill="black" stroke="black" points="180.14,-406.09 177.66,-395.79 173.18,-405.39 180.14,-406.09"/>
</g>
<!-- JJ&#45;&gt;II -->
<g id="edge20" class="edge">
<title>JJ&#45;&gt;II</title>
<path fill="none" stroke="black" d="M189.39,-395.96C190,-403.83 189.96,-413.37 189.35,-422.19"/>
<polygon fill="black" stroke="black" points="185.84,-422.11 188.31,-432.41 192.8,-422.81 185.84,-422.11"/>
</g>
</g>
</svg>
